<svg xmlns="http://www.w3.org/2000/svg" xmlns:xlink="http://www.w3.org/1999/xlink" id="e9Dk4TNqaIK1" viewBox="0 0 700 700"><g id="e9Dk4TNqaIK2" style="isolation:isolate" transform="matrix(.758287 0 0 0.758288 220.27156 79.573752)" opacity="0"><g><path d="M352.07,166.86L336.88,93.42l-8.71,13.25C225.455919,46.378978,96.829296,52.431027,0.23,122.1l52.45,6-6.06,53.2c69.47-48.78,163.23-55.5,240.29-11.84l-8.28,12.6Z" fill="#b2d9ab"></path><g style="mix-blend-mode:multiply"><circle r="94.55" transform="matrix(.707107-.707107 0.707107 0.707107 176.236913 99.410057)" opacity="0.4" fill="#5b5b5b"></circle></g><circle r="96.96" transform="translate(176.12 99.22)" fill="#b2d9ab"></circle><path d="M243.37,166.47c-28.846221,28.959147-72.676531,36.888028-109.84,19.87c37.211555,18.154422,81.844097,10.688052,111.121075-18.588925s36.743347-73.90952,18.588925-111.121075c17.018028,37.163469,9.089147,80.993779-19.87,109.84Z" fill="#b2d9ab"></path><path d="M108.87,32c31.134677-31.250521,79.386611-37.671257,117.61-15.65-38.202626-23.153976-87.27845-17.223559-118.866005,14.363995s-37.517971,80.663379-14.363995,118.866005C71.236655,111.37028,77.644222,63.13713,108.87,32Z" fill="#b2d9ab"></path><g style="mix-blend-mode:multiply"><circle r="92.03" transform="translate(176.05 99.5)" opacity="0" fill="#fff"></circle><circle r="91.82" transform="translate(176.04 99.5)" opacity="0.01" fill="#fcfcfc"></circle><circle r="91.61" transform="translate(176.04 99.5)" opacity="0.02" fill="#f8f8f8"></circle><circle r="91.4" transform="translate(176.03 99.5)" opacity="0.02" fill="#f5f5f5"></circle><circle r="91.2" transform="translate(176.02 99.5)" opacity="0.03" fill="#f2f2f2"></circle><circle r="90.99" transform="translate(176.02 99.5)" opacity="0.04" fill="#efefef"></circle><circle r="90.78" transform="translate(176.01 99.5)" opacity="0.05" fill="#ebebeb"></circle><circle r="90.57" transform="translate(176.01 99.5)" opacity="0.05" fill="#e8e8e8"></circle><circle r="90.36" transform="translate(176 99.5)" opacity="0.06" fill="#e5e5e5"></circle><circle r="90.15" transform="translate(175.99 99.5)" opacity="0.07" fill="#e2e2e2"></circle><circle r="89.94" transform="translate(175.99 99.5)" opacity="0.08" fill="#dedede"></circle><circle r="89.73" transform="translate(175.98 99.5)" opacity="0.09" fill="#dbdbdb"></circle><circle r="89.52" transform="translate(175.97 99.5)" opacity="0.09" fill="#d8d8d8"></circle><circle r="89.31" transform="translate(175.97 99.5)" opacity="0.1" fill="#d5d5d5"></circle><circle r="89.11" transform="translate(175.96 99.5)" opacity="0.11" fill="#d1d1d1"></circle><circle r="88.9" transform="translate(175.96 99.5)" opacity="0.12" fill="#cecece"></circle><circle r="88.69" transform="translate(175.95 99.5)" opacity="0.13" fill="#cbcbcb"></circle><circle r="88.48" transform="translate(175.94 99.5)" opacity="0.13" fill="#c8c8c8"></circle><circle r="88.27" transform="translate(175.94 99.5)" opacity="0.14" fill="#c4c4c4"></circle><circle r="88.06" transform="translate(175.93 99.5)" opacity="0.15" fill="#c1c1c1"></circle><circle r="87.85" transform="translate(175.92 99.5)" opacity="0.16" fill="#bebebe"></circle><circle r="87.64" transform="translate(175.92 99.5)" opacity="0.16" fill="#bbb"></circle><circle r="87.43" transform="translate(175.91 99.5)" opacity="0.17" fill="#b7b7b7"></circle><circle r="87.23" transform="translate(175.9 99.5)" opacity="0.18" fill="#b4b4b4"></circle><circle r="87.02" transform="translate(175.9 99.5)" opacity="0.19" fill="#b1b1b1"></circle><circle r="86.81" transform="translate(175.89 99.5)" opacity="0.2" fill="#aeaeae"></circle><circle r="86.6" transform="translate(175.89 99.5)" opacity="0.2" fill="#aaa"></circle><circle r="86.39" transform="translate(175.88 99.5)" opacity="0.21" fill="#a7a7a7"></circle><circle r="86.18" transform="translate(175.87 99.5)" opacity="0.22" fill="#a4a4a4"></circle><circle r="85.97" transform="translate(175.87 99.5)" opacity="0.23" fill="#a1a1a1"></circle><circle r="85.76" transform="translate(175.86 99.5)" opacity="0.24" fill="#9d9d9d"></circle><circle r="85.55" transform="translate(175.85 99.5)" opacity="0.24" fill="#9a9a9a"></circle><circle r="85.34" transform="translate(175.85 99.5)" opacity="0.25" fill="#979797"></circle><circle r="85.14" transform="translate(175.84 99.5)" opacity="0.26" fill="#949494"></circle><circle r="84.93" transform="translate(175.83 99.5)" opacity="0.27" fill="#909090"></circle><circle r="84.72" transform="translate(175.83 99.5)" opacity="0.27" fill="#8d8d8d"></circle><circle r="84.51" transform="translate(175.82 99.5)" opacity="0.28" fill="#8a8a8a"></circle><circle r="84.3" transform="translate(175.82 99.5)" opacity="0.29" fill="#878787"></circle><circle r="84.09" transform="translate(175.81 99.5)" opacity="0.3" fill="#838383"></circle><circle r="83.88" transform="translate(175.8 99.5)" opacity="0.31" fill="#808080"></circle><circle r="83.67" transform="translate(175.8 99.5)" opacity="0.31" fill="#7d7d7d"></circle><circle r="83.46" transform="translate(175.79 99.5)" opacity="0.32" fill="#7a7a7a"></circle><circle r="83.26" transform="translate(175.78 99.5)" opacity="0.33" fill="#767676"></circle><circle r="83.05" transform="translate(175.78 99.5)" opacity="0.34" fill="#737373"></circle><circle r="82.84" transform="translate(175.77 99.5)" opacity="0.35" fill="#707070"></circle><circle r="82.63" transform="translate(175.77 99.5)" opacity="0.35" fill="#6d6d6d"></circle><circle r="82.42" transform="translate(175.76 99.5)" opacity="0.36" fill="#696969"></circle><circle r="82.21" transform="translate(175.75 99.5)" opacity="0.37" fill="#666"></circle><circle r="82" transform="translate(175.75 99.5)" opacity="0.38" fill="#636363"></circle><circle r="81.79" transform="translate(175.74 99.5)" opacity="0.38" fill="#606060"></circle><circle r="81.58" transform="translate(175.73 99.5)" opacity="0.39" fill="#5c5c5c"></circle><circle r="81.37" transform="translate(175.73 99.5)" opacity="0.4" fill="#595959"></circle></g><circle r="83.1" transform="matrix(.707107-.707107 0.707107 0.707107 176.124781 99.213489)" fill="#fff"></circle><circle r="83.1" transform="translate(175.46 98.18)" fill="#fff"></circle><path d="M233.76,156.86c-24.732859,24.811991-62.301607,31.595514-94.15,17c31.889803,15.558826,70.139451,9.164122,95.234168-15.921567s31.503183-63.333034,15.955832-95.228433c14.585382,31.856527,7.785695,69.426396-17.04,94.15Z" fill="#c9c9c9"></path><text dx="0" dy="0" font-family="&quot;NotoSansTC-Medium-90ms-RKSJ-H, Noto Sans TC&quot;" font-size="20" font-weight="400" transform="translate(126.66 105.04)" fill="#595757"><![CDATA[性別多元性]]></text></g></g><g id="e9Dk4TNqaIK67" style="isolation:isolate" transform="matrix(.765384 0 0 0.765384 454.464883 174.210777)" opacity="0"><g><path d="M111.21,349.31l65.16-37.15-15.3-4.16c16.182729-72.308577,4.830348-148.052916-31.84-212.44C108.261497,58.339494,79.560483,26.044461,45.06,0.85L55.59,52.59L3.1,63.27c67.85,51,103.21,138.09,85.5,224.86l-14.54-4Z" fill="#a9d177"></path><g style="mix-blend-mode:multiply"><circle r="94.55" transform="matrix(.707107-.707107 0.707107 0.707107 120.729087 161.971084)" opacity="0.4" fill="#5b5b5b"></circle></g><circle r="96.96" transform="translate(120.61 161.18)" fill="#a9d177"></circle><path d="M187.87,228.43C159.016486,257.397722,115.174676,265.330508,78,248.31c37.216371,18.180982,81.871045,10.724737,111.16158-18.561283s36.753665-73.939544,18.57842-111.158717c17.018028,37.163469,9.089147,80.993779-19.87,109.84Z" fill="#a9d177"></path><path d="M53.36,93.93C84.506867,62.674558,132.776071,56.265471,171,78.31C132.796729,55.135712,83.705281,61.056652,52.107518,92.649672s-37.526072,80.683579-14.357518,118.890328C15.718507,173.325362,22.122698,125.074441,53.36,93.93Z" fill="#a9d177"></path><g style="mix-blend-mode:multiply"><circle r="92.03" transform="matrix(.707107-.707107 0.707107 0.707107 120.551183 161.457738)" opacity="0" fill="#fff"></circle><circle r="91.82" transform="matrix(.707107-.707107 0.707107 0.707107 120.534112 161.464809)" opacity="0.01" fill="#fcfcfc"></circle><circle r="91.61" transform="matrix(.707107-.707107 0.707107 0.707107 120.527041 161.461881)" opacity="0.02" fill="#f8f8f8"></circle><circle r="91.4" transform="matrix(.707107-.707107 0.707107 0.707107 120.527041 161.461881)" opacity="0.02" fill="#f5f5f5"></circle><circle r="91.2" transform="matrix(.707107-.707107 0.707107 0.707107 120.51997 161.458952)" opacity="0.03" fill="#f2f2f2"></circle><circle r="90.99" transform="matrix(.707107-.707107 0.707107 0.707107 120.512899 161.466023)" opacity="0.04" fill="#efefef"></circle><circle r="90.78" transform="matrix(.707107-.707107 0.707107 0.707107 120.512899 161.456023)" opacity="0.05" fill="#ebebeb"></circle><circle r="90.57" transform="matrix(.707107-.707107 0.707107 0.707107 120.495828 161.463094)" opacity="0.05" fill="#e8e8e8"></circle><circle r="90.36" transform="matrix(.707107-.707107 0.707107 0.707107 120.495828 161.453094)" opacity="0.06" fill="#e5e5e5"></circle><circle r="90.15" transform="matrix(.707107-.707107 0.707107 0.707107 120.488757 161.460165)" opacity="0.07" fill="#e2e2e2"></circle><circle r="89.94" transform="matrix(.707107-.707107 0.707107 0.707107 120.481686 161.467236)" opacity="0.08" fill="#dedede"></circle><circle r="89.73" transform="matrix(.707107-.707107 0.707107 0.707107 120.481686 161.457236)" opacity="0.09" fill="#dbdbdb"></circle><circle r="89.52" transform="matrix(.707107-.707107 0.707107 0.707107 120.464615 161.464307)" opacity="0.09" fill="#d8d8d8"></circle><circle r="89.31" transform="matrix(.707107-.707107 0.707107 0.707107 120.457544 161.461378)" opacity="0.1" fill="#d5d5d5"></circle><circle r="89.11" transform="matrix(.707107-.707107 0.707107 0.707107 120.457544 161.461378)" opacity="0.11" fill="#d1d1d1"></circle><circle r="88.9" transform="matrix(.707107-.707107 0.707107 0.707107 120.450473 161.458449)" opacity="0.12" fill="#cecece"></circle><circle r="88.69" transform="matrix(.707107-.707107 0.707107 0.707107 120.450473 161.458449)" opacity="0.13" fill="#cbcbcb"></circle><circle r="88.48" transform="matrix(.707107-.707107 0.707107 0.707107 120.443402 161.45552)" opacity="0.13" fill="#c8c8c8"></circle><circle r="88.27" transform="matrix(.707107-.707107 0.707107 0.707107 120.426331 161.462591)" opacity="0.14" fill="#c4c4c4"></circle><circle r="88.06" transform="matrix(.707107-.707107 0.707107 0.707107 120.426331 161.462591)" opacity="0.15" fill="#c1c1c1"></circle><circle r="87.85" transform="matrix(.707107-.707107 0.707107 0.707107 120.419259 161.459662)" opacity="0.16" fill="#bebebe"></circle><circle r="87.64" transform="matrix(.707107-.707107 0.707107 0.707107 120.412188 161.466733)" opacity="0.16" fill="#bbb"></circle><circle r="87.43" transform="matrix(.707107-.707107 0.707107 0.707107 120.412188 161.456733)" opacity="0.17" fill="#b7b7b7"></circle><circle r="87.23" transform="matrix(.707107-.707107 0.707107 0.707107 120.395117 161.463804)" opacity="0.18" fill="#b4b4b4"></circle><circle r="87.02" transform="matrix(.707107-.707107 0.707107 0.707107 120.388046 161.460876)" opacity="0.19" fill="#b1b1b1"></circle><circle r="86.81" transform="matrix(.707107-.707107 0.707107 0.707107 120.388046 161.460876)" opacity="0.2" fill="#aeaeae"></circle><circle r="86.6" transform="matrix(.707107-.707107 0.707107 0.707107 120.380975 161.457947)" opacity="0.2" fill="#aaa"></circle><circle r="86.39" transform="matrix(.707107-.707107 0.707107 0.707107 120.380975 161.457947)" opacity="0.21" fill="#a7a7a7"></circle><circle r="86.18" transform="matrix(.707107-.707107 0.707107 0.707107 120.363904 161.455018)" opacity="0.22" fill="#a4a4a4"></circle><circle r="85.97" transform="matrix(.707107-.707107 0.707107 0.707107 120.356833 161.462089)" opacity="0.23" fill="#a1a1a1"></circle><circle r="85.76" transform="matrix(.707107-.707107 0.707107 0.707107 120.356833 161.462089)" opacity="0.24" fill="#9d9d9d"></circle><circle r="85.55" transform="matrix(.707107-.707107 0.707107 0.707107 120.349762 161.45916)" opacity="0.24" fill="#9a9a9a"></circle><circle r="85.34" transform="matrix(.707107-.707107 0.707107 0.707107 120.342691 161.466231)" opacity="0.25" fill="#979797"></circle><circle r="85.14" transform="matrix(.707107-.707107 0.707107 0.707107 120.342691 161.456231)" opacity="0.26" fill="#949494"></circle><circle r="84.93" transform="matrix(.707107-.707107 0.707107 0.707107 120.32562 161.463302)" opacity="0.27" fill="#909090"></circle><circle r="84.72" transform="matrix(.707107-.707107 0.707107 0.707107 120.318549 161.460373)" opacity="0.27" fill="#8d8d8d"></circle><circle r="84.51" transform="matrix(.707107-.707107 0.707107 0.707107 120.318549 161.460373)" opacity="0.28" fill="#8a8a8a"></circle><circle r="84.3" transform="matrix(.707107-.707107 0.707107 0.707107 120.311478 161.457444)" opacity="0.29" fill="#878787"></circle><circle r="84.09" transform="matrix(.707107-.707107 0.707107 0.707107 120.311478 161.457444)" opacity="0.3" fill="#838383"></circle><circle r="83.88" transform="matrix(.707107-.707107 0.707107 0.707107 120.294407 161.464515)" opacity="0.31" fill="#808080"></circle><circle r="83.67" transform="matrix(.707107-.707107 0.707107 0.707107 120.287336 161.461586)" opacity="0.31" fill="#7d7d7d"></circle><circle r="83.46" transform="matrix(.707107-.707107 0.707107 0.707107 120.287336 161.461586)" opacity="0.32" fill="#7a7a7a"></circle><circle r="83.26" transform="matrix(.707107-.707107 0.707107 0.707107 120.280265 161.458657)" opacity="0.33" fill="#767676"></circle><circle r="83.05" transform="matrix(.707107-.707107 0.707107 0.707107 120.273193 161.465728)" opacity="0.34" fill="#737373"></circle><circle r="82.84" transform="matrix(.707107-.707107 0.707107 0.707107 120.273193 161.455728)" opacity="0.35" fill="#707070"></circle><circle r="82.63" transform="matrix(.707107-.707107 0.707107 0.707107 120.256122 161.462799)" opacity="0.35" fill="#6d6d6d"></circle><circle r="82.42" transform="matrix(.707107-.707107 0.707107 0.707107 120.256122 161.452799)" opacity="0.36" fill="#696969"></circle><circle r="82.21" transform="matrix(.707107-.707107 0.707107 0.707107 120.249051 161.45987)" opacity="0.37" fill="#666"></circle><circle r="82" transform="matrix(.707107-.707107 0.707107 0.707107 120.24198 161.466942)" opacity="0.38" fill="#636363"></circle><circle r="81.79" transform="matrix(.707107-.707107 0.707107 0.707107 120.24198 161.456942)" opacity="0.38" fill="#606060"></circle><circle r="81.58" transform="matrix(.707107-.707107 0.707107 0.707107 120.224909 161.464013)" opacity="0.39" fill="#5c5c5c"></circle><circle r="81.37" transform="matrix(.707107-.707107 0.707107 0.707107 120.217838 161.461084)" opacity="0.4" fill="#595959"></circle></g><circle r="83.1" transform="matrix(.707107-.707107 0.707107 0.707107 120.61562 161.187322)" fill="#fff"></circle><circle r="83.1" transform="translate(120.61 161.18)" fill="#fff"></circle><path d="M178.26,218.82c-24.732859,24.811991-62.301607,31.595514-94.15,17c31.889268,15.565426,70.143043,9.172565,95.238339-15.91596s31.498481-63.340572,15.941661-95.23404c14.587915,31.854494,7.792268,69.424082-17.03,94.15Z" fill="#c9c9c9"></path><text dx="0" dy="0" font-family="&quot;NotoSansTC-Medium-90ms-RKSJ-H, Noto Sans TC&quot;" font-size="20" font-weight="400" transform="translate(74.66 171.04)" fill="#595757"><![CDATA[世代多元性]]></text></g></g><g id="e9Dk4TNqaIK132" style="isolation:isolate" transform="matrix(.747865 0 0 0.747865 338.282673 418.283204)" opacity="0"><g><path d="M0.42,191.24l55.46,50.49-.74-15.85c73.752845-6.944259,142.269324-41.129407,192.17-95.88c28.921602-31.455593,50.768519-68.742316,64.07-109.35l-45.95,26L239.05,0C211.51,80.3,139.61,140.84,51.61,150.81l-.71-15.05Z" fill="#97b7ca"></path><g style="mix-blend-mode:multiply"><circle r="94.55" transform="matrix(.707107-.707107 0.707107 0.707107 182.681628 142.453094)" opacity="0.4" fill="#5b5b5b"></circle></g><circle r="96.96" transform="translate(182.56 142.33)" fill="#97b7ca"></circle><path d="M249.82,209.58c-28.838922,28.956435-72.660232,36.889121-109.82,19.88c37.212099,18.144203,81.838393,10.671005,111.109163-18.606536s36.733646-73.905563,18.580837-111.113464c17.018028,37.163469,9.089147,80.993779-19.87,109.84Z" fill="#97b7ca"></path><path d="M115.31,75.08c31.146064-31.242247,79.402994-37.646691,117.62-15.61-38.202626-23.153976-87.27845-17.223559-118.866005,14.363995s-37.517971,80.663379-14.363995,118.866005c-22.033087-38.21772-15.628954-86.472307,15.61-117.62Z" fill="#97b7ca"></path><g style="mix-blend-mode:multiply"><circle r="92.03" transform="matrix(.225291-.974291 0.974291 0.225291 182.489157 142.610713)" opacity="0" fill="#fff"></circle><circle r="91.82" transform="matrix(.222399-.974956 0.974956 0.222399 182.494023 142.62664)" opacity="0.01" fill="#fcfcfc"></circle><circle r="91.61" transform="matrix(.219506-.975611 0.975611 0.219506 182.487367 142.624235)" opacity="0.02" fill="#f8f8f8"></circle><circle r="91.4" transform="matrix(.21678-.97622 0.97622 0.21678 182.476833 142.614301)" opacity="0.02" fill="#f5f5f5"></circle><circle r="91.2" transform="matrix(.214224-.976785 0.976785 0.214224 182.478686 142.62659)" opacity="0.03" fill="#f2f2f2"></circle><circle r="90.99" transform="matrix(.211666-.977342 0.977342 0.211666 182.469332 142.619859)" opacity="0.04" fill="#efefef"></circle><circle r="90.78" transform="matrix(.209277-.977856 0.977856 0.209277 182.466796 142.62533)" opacity="0.05" fill="#ebebeb"></circle><circle r="90.57" transform="matrix(.206887-.978365 0.978365 0.206887 182.45114 142.611484)" opacity="0.05" fill="#e8e8e8"></circle><circle r="90.36" transform="matrix(.204667-.978832 0.978832 0.204667 182.442666 142.609711)" opacity="0.06" fill="#e5e5e5"></circle><circle r="90.15" transform="matrix(.202445-.979294 0.979294 0.202445 182.421119 142.598337)" opacity="0.07" fill="#e2e2e2"></circle><circle r="89.94" transform="matrix(.200394-.979715 0.979715 0.200394 182.4151 142.608722)" opacity="0.08" fill="#dedede"></circle><circle r="89.73" transform="matrix(.198513-.980098 0.980098 0.198513 182.436547 142.620624)" opacity="0.09" fill="#dbdbdb"></circle><circle r="89.52" transform="matrix(.2-.98 0.98 0.2 182.981804 143.200398)" opacity="0.09" fill="#d8d8d8"></circle><circle r="89.31" transform="matrix(.194748-.980853 0.980853 0.194748 182.423482 142.62557)" opacity="0.1" fill="#d5d5d5"></circle><circle r="89.11" transform="matrix(.192865-.981225 0.981225 0.192865 182.403053 142.60918)" opacity="0.11" fill="#d1d1d1"></circle><circle r="88.9" transform="matrix(.191152-.981561 0.981561 0.191152 182.396619 142.61339)" opacity="0.12" fill="#cecece"></circle><circle r="88.69" transform="matrix(.189438-.981893 0.981893 0.189438 182.381198 142.598517)" opacity="0.13" fill="#cbcbcb"></circle><circle r="88.48" transform="matrix(.187896-.982189 0.982189 0.187896 182.390313 142.614408)" opacity="0.13" fill="#c8c8c8"></circle><circle r="88.27" transform="matrix(.186353-.982483 0.982483 0.186353 182.388936 142.620574)" opacity="0.14" fill="#c4c4c4"></circle><circle r="88.06" transform="matrix(.184809-.982774 0.982774 0.184809 182.378944 142.607222)" opacity="0.15" fill="#c1c1c1"></circle><circle r="87.85" transform="matrix(.183265-.983064 0.983064 0.183265 182.356718 142.604108)" opacity="0.16" fill="#bebebe"></circle><circle r="87.64" transform="matrix(.181892-.983318 0.983318 0.181892 182.360719 142.611823)" opacity="0.16" fill="#bbb"></circle><circle r="87.43" transform="matrix(.180519-.983571 0.983571 0.180519 182.356591 142.609733)" opacity="0.17" fill="#b7b7b7"></circle><circle r="87.23" transform="matrix(.179146-.983823 0.983823 0.179146 182.340187 142.607964)" opacity="0.18" fill="#b4b4b4"></circle><circle r="87.02" transform="matrix(.18-.98 0.98 0.18 182.148913 143.656675)" opacity="0.19" fill="#b1b1b1"></circle><circle r="86.81" transform="matrix(.176569-.984288 0.984288 0.176569 182.324949 142.605391)" opacity="0.2" fill="#aeaeae"></circle><circle r="86.6" transform="matrix(.175367-.984503 0.984503 0.175367 182.32466 142.604635)" opacity="0.2" fill="#aaa"></circle><circle r="86.39" transform="matrix(.174164-.984717 0.984717 0.174164 182.315755 142.604128)" opacity="0.21" fill="#a7a7a7"></circle><circle r="86.18" transform="matrix(.173133-.984899 0.984899 0.173133 182.332134 142.62364)" opacity="0.22" fill="#a4a4a4"></circle><circle r="85.97" transform="matrix(.171929-.985109 0.985109 0.171929 182.31083 142.613522)" opacity="0.23" fill="#a1a1a1"></circle><circle r="85.76" transform="matrix(.170897-.985289 0.985289 0.170897 182.31828 142.6236)" opacity="0.24" fill="#9d9d9d"></circle><circle r="85.55" transform="matrix(.169693-.985497 0.985497 0.169693 182.286758 142.603821)" opacity="0.24" fill="#9a9a9a"></circle><circle r="85.34" transform="matrix(.168661-.985674 0.985674 0.168661 182.282203 142.604214)" opacity="0.25" fill="#979797"></circle><circle r="85.14" transform="matrix(.167801-.985821 0.985821 0.167801 182.296358 142.624808)" opacity="0.26" fill="#949494"></circle><circle r="84.93" transform="matrix(.166769-.985996 0.985996 0.166769 182.281543 142.615578)" opacity="0.27" fill="#909090"></circle><circle r="84.72" transform="matrix(.165736-.98617 0.98617 0.165736 182.26643 142.60638)" opacity="0.27" fill="#8d8d8d"></circle><circle r="84.51" transform="matrix(.164875-.986314 0.986314 0.164875 182.270084 142.617297)" opacity="0.28" fill="#8a8a8a"></circle><circle r="84.3" transform="matrix(.164015-.986458 0.986458 0.164015 182.272123 142.628368)" opacity="0.29" fill="#878787"></circle><circle r="84.09" transform="matrix(.162982-.986629 0.986629 0.162982 182.238268 142.599854)" opacity="0.3" fill="#838383"></circle><circle r="83.88" transform="matrix(.162121-.986771 0.986771 0.162121 182.239945 142.601078)" opacity="0.31" fill="#808080"></circle><circle r="83.67" transform="matrix(.161259-.986912 0.986912 0.161259 182.231382 142.602285)" opacity="0.31" fill="#7d7d7d"></circle><circle r="83.46" transform="matrix(.16057-.987024 0.987024 0.16057 182.241846 142.623564)" opacity="0.32" fill="#7a7a7a"></circle><circle r="83.26" transform="matrix(.159709-.987164 0.987164 0.159709 182.223252 142.615183)" opacity="0.33" fill="#767676"></circle><circle r="83.05" transform="matrix(.16-.99 0.99 0.16 182.809109 142.279792)" opacity="0.34" fill="#737373"></circle><circle r="82.84" transform="matrix(.16-.99 0.99 0.16 182.919109 142.399792)" opacity="0.35" fill="#707070"></circle><circle r="82.63" transform="matrix(.157469-.987524 0.987524 0.157469 182.223213 142.629918)" opacity="0.35" fill="#6d6d6d"></circle><circle r="82.42" transform="matrix(.156607-.987661 0.987661 0.156607 182.195697 142.602014)" opacity="0.36" fill="#696969"></circle><circle r="82.21" transform="matrix(.155917-.98777 0.98777 0.155917 182.193985 142.603606)" opacity="0.37" fill="#666"></circle><circle r="82" transform="matrix(.155228-.987879 0.987879 0.155228 182.192359 142.615442)" opacity="0.38" fill="#636363"></circle><circle r="81.79" transform="matrix(.154538-.987987 0.987987 0.154538 182.182077 142.607336)" opacity="0.38" fill="#606060"></circle><circle r="81.58" transform="matrix(.153848-.988095 0.988095 0.153848 182.170178 142.60919)" opacity="0.39" fill="#5c5c5c"></circle><circle r="81.37" transform="matrix(.153158-.988202 0.988202 0.153158 182.158231 142.611148)" opacity="0.4" fill="#595959"></circle></g><circle r="83.1" transform="translate(182.56 142.33)" fill="#fff"></circle><circle r="83.1" transform="translate(182.56 142.33)" fill="#fff"></circle><path d="M240.21,200c-24.735695,24.80658-62.300842,31.589453-94.15,17c31.893776,15.574401,70.157752,9.181438,95.25644-15.914992s31.495092-63.359831,15.92356-95.255008c14.600356,31.859463,7.803823,69.441938-17.03,94.17Z" fill="#c9c9c9"></path><text dx="0" dy="0" font-family="&quot;NotoSansTC-Medium-90ms-RKSJ-H, Noto Sans TC&quot;" font-size="20" font-weight="400" transform="translate(132.66 152.04)" fill="#595757"><![CDATA[文化多元性]]></text></g></g><g id="e9Dk4TNqaIK197" style="isolation:isolate" transform="matrix(.782513 0 0 0.782513 133.492088 397.913305)" opacity="0"><g><path d="M31.15,1.4L0.28,69.75l14.83-5.6c29.409994,67.999156,83.108175,122.595813,150.61,153.13c38.843798,17.786744,81.047666,27.044521,123.77,27.15l-38.93-35.67l36.19-39.49C201.88,167.89,122.08,118.22,85.4,37.6l14.1-5.32Z" fill="#7cadcc"></path><g style="mix-blend-mode:multiply"><circle r="94.55" transform="matrix(.707107-.707107 0.707107 0.707107 133.858942 158.812314)" opacity="0.4" fill="#5b5b5b"></circle></g><circle r="96.96" transform="translate(133.75 159.34)" fill="#7cadcc"></circle><path d="M201,226.59c-28.846221,28.959147-72.676531,36.888028-109.84,19.87c37.211555,18.154422,81.844097,10.688052,111.121075-18.588925s36.743347-73.90952,18.588925-111.121075c17.018028,37.163469,9.089147,80.993779-19.87,109.84Z" opacity="0.09" fill="#dbdbdb"></path><path d="M66.49,92.08c31.149322-31.235662,79.401566-37.639483,117.62-15.61C145.907374,53.316024,96.83155,59.246441,65.243995,90.833995s-37.517971,80.663379-14.363995,118.866005C28.850517,171.481566,35.254338,123.229322,66.49,92.08Z" opacity="0.09" fill="#dbdbdb"></path><g style="mix-blend-mode:multiply"><circle r="92.03" transform="matrix(.12083-.992673 0.992673 0.12083 133.683056 159.616333)" opacity="0" fill="#fff"></circle><circle r="91.82" transform="matrix(.119964-.992778 0.992778 0.119964 133.672855 159.613992)" opacity="0.01" fill="#fcfcfc"></circle><circle r="91.61" transform="matrix(.119097-.992883 0.992883 0.119097 133.663615 159.611634)" opacity="0.02" fill="#f8f8f8"></circle><circle r="91.4" transform="matrix(.118231-.992986 0.992986 0.118231 133.653201 159.609509)" opacity="0.02" fill="#f5f5f5"></circle><circle r="91.2" transform="matrix(.117364-.993089 0.993089 0.117364 133.652559 159.617302)" opacity="0.03" fill="#f2f2f2"></circle><circle r="90.99" transform="matrix(.116497-.993191 0.993191 0.116497 133.64298 159.60527)" opacity="0.04" fill="#efefef"></circle><circle r="90.78" transform="matrix(.115631-.993292 0.993292 0.115631 133.642237 159.61345)" opacity="0.05" fill="#ebebeb"></circle><circle r="90.57" transform="matrix(.114764-.993393 0.993393 0.114764 133.631267 159.621548)" opacity="0.05" fill="#e8e8e8"></circle><circle r="90.36" transform="matrix(.113897-.993493 0.993493 0.113897 133.631333 159.619819)" opacity="0.06" fill="#e5e5e5"></circle><circle r="90.15" transform="matrix(.11303-.993592 0.993592 0.11303 133.630151 159.628135)" opacity="0.07" fill="#e2e2e2"></circle><circle r="89.94" transform="matrix(.112163-.99369 0.99369 0.112163 133.628866 159.636558)" opacity="0.08" fill="#dedede"></circle><circle r="89.73" transform="matrix(.111122-.993807 0.993807 0.111122 133.608445 159.604768)" opacity="0.09" fill="#dbdbdb"></circle><circle r="89.52" transform="matrix(.110255-.993903 0.993903 0.110255 133.606923 159.613426)" opacity="0.09" fill="#d8d8d8"></circle><circle r="89.31" transform="matrix(.109387-.993999 0.993999 0.109387 133.606265 159.622061)" opacity="0.1" fill="#d5d5d5"></circle><circle r="89.11" transform="matrix(.108346-.994113 0.994113 0.108346 133.584301 159.600605)" opacity="0.11" fill="#d1d1d1"></circle><circle r="88.9" transform="matrix(.107479-.994207 0.994207 0.107479 133.582426 159.619585)" opacity="0.12" fill="#cecece"></circle><circle r="88.69" transform="matrix(.106611-.994301 0.994301 0.106611 133.58139 159.618543)" opacity="0.13" fill="#cbcbcb"></circle><circle r="88.48" transform="matrix(.10557-.994412 0.994412 0.10557 133.569007 159.607487)" opacity="0.13" fill="#c8c8c8"></circle><circle r="88.27" transform="matrix(.104702-.994504 0.994504 0.104702 133.566667 159.626622)" opacity="0.14" fill="#c4c4c4"></circle><circle r="88.06" transform="matrix(.1-.99 0.99 0.1 132.329854 159.637564)" opacity="0.15" fill="#c1c1c1"></circle><circle r="87.85" transform="matrix(.102793-.994703 0.994703 0.102793 133.552458 159.625259)" opacity="0.16" fill="#bebebe"></circle><circle r="87.64" transform="matrix(.101751-.99481 0.99481 0.101751 133.5404 159.60463)" opacity="0.16" fill="#bbb"></circle><circle r="87.43" transform="matrix(.100883-.994898 0.994898 0.100883 133.547586 159.624233)" opacity="0.17" fill="#b7b7b7"></circle><circle r="87.23" transform="matrix(.099841-.995003 0.995003 0.099841 133.524217 159.613823)" opacity="0.18" fill="#b4b4b4"></circle><circle r="87.02" transform="matrix(.098972-.99509 0.99509 0.098972 133.532034 159.623517)" opacity="0.19" fill="#b1b1b1"></circle><circle r="86.81" transform="matrix(.09793-.995193 0.995193 0.09793 133.518373 159.623382)" opacity="0.2" fill="#aeaeae"></circle><circle r="86.6" transform="matrix(.096888-.995295 0.995295 0.096888 133.514554 159.613392)" opacity="0.2" fill="#aaa"></circle><circle r="86.39" transform="matrix(.09602-.995379 0.995379 0.09602 133.522095 159.633614)" opacity="0.21" fill="#a7a7a7"></circle><circle r="86.18" transform="matrix(.094977-.995479 0.995479 0.094977 133.507868 159.623729)" opacity="0.22" fill="#a4a4a4"></circle><circle r="85.97" transform="matrix(.093935-.995578 0.995578 0.093935 133.493599 159.624157)" opacity="0.23" fill="#a1a1a1"></circle><circle r="85.76" transform="matrix(.092892-.995676 0.995676 0.092892 133.489989 159.61461)" opacity="0.24" fill="#9d9d9d"></circle><circle r="85.55" transform="matrix(.091849-.995773 0.995773 0.091849 133.475281 159.615163)" opacity="0.24" fill="#9a9a9a"></circle><circle r="85.34" transform="matrix(.090806-.995869 0.995869 0.090806 133.471326 159.605906)" opacity="0.25" fill="#979797"></circle><circle r="85.14" transform="matrix(.089764-.995963 0.995963 0.089764 133.466427 159.606942)" opacity="0.26" fill="#949494"></circle><circle r="84.93" transform="matrix(.09-1 1 0.09 134.26143 159.285781)" opacity="0.27" fill="#909090"></circle><circle r="84.72" transform="matrix(.087677-.996149 0.996149 0.087677 133.446668 159.598961)" opacity="0.27" fill="#8d8d8d"></circle><circle r="84.51" transform="matrix(.086634-.99624 0.99624 0.086634 133.441172 159.610267)" opacity="0.28" fill="#8a8a8a"></circle><circle r="84.3" transform="matrix(.085591-.99633 0.99633 0.085591 133.445518 159.611717)" opacity="0.29" fill="#878787"></circle><circle r="84.09" transform="matrix(.084547-.996419 0.996419 0.084547 133.440435 159.613181)" opacity="0.3" fill="#838383"></circle><circle r="83.88" transform="matrix(.083504-.996507 0.996507 0.083504 133.434462 159.624928)" opacity="0.31" fill="#808080"></circle><circle r="83.67" transform="matrix(.08246-.996594 0.996594 0.08246 133.429035 159.616682)" opacity="0.31" fill="#7d7d7d"></circle><circle r="83.46" transform="matrix(.081243-.996694 0.996694 0.081243 133.411791 159.599054)" opacity="0.32" fill="#7a7a7a"></circle><circle r="83.26" transform="matrix(.08-1 1 0.08 133.902817 159.149587)" opacity="0.33" fill="#767676"></circle><circle r="83.05" transform="matrix(.079155-.996862 0.996862 0.079155 133.409235 159.613323)" opacity="0.34" fill="#737373"></circle><circle r="82.84" transform="matrix(.078111-.996945 0.996945 0.078111 133.412313 159.635656)" opacity="0.35" fill="#707070"></circle><circle r="82.63" transform="matrix(.076893-.997039 0.997039 0.076893 133.394182 159.618586)" opacity="0.35" fill="#6d6d6d"></circle><circle r="82.42" transform="matrix(.075849-.997119 0.997119 0.075849 133.397687 159.621277)" opacity="0.36" fill="#696969"></circle><circle r="82.21" transform="matrix(.074631-.997211 0.997211 0.074631 133.37914 159.614572)" opacity="0.37" fill="#666"></circle><circle r="82" transform="matrix(.073586-.997289 0.997289 0.073586 133.381414 159.627378)" opacity="0.38" fill="#636363"></circle><circle r="81.79" transform="matrix(.07-1 1 0.07 133.475899 158.883401)" opacity="0.38" fill="#606060"></circle><circle r="81.58" transform="matrix(.071149-.997466 0.997466 0.071149 133.353902 159.604773)" opacity="0.39" fill="#5c5c5c"></circle><circle r="81.37" transform="matrix(.070105-.99754 0.99754 0.070105 133.356474 159.618273)" opacity="0.4" fill="#595959"></circle></g><circle r="83.1" transform="translate(133.75 159.34)" fill="#fff"></circle><circle r="83.1" transform="translate(133.75 159.34)" fill="#fff"></circle><path d="M191.39,217c-24.73002,24.817405-62.302372,31.601579-94.15,17c31.894629,15.581762,70.164285,9.192192,95.266928-15.905935s31.499096-63.366633,15.923072-95.264065c14.59479,31.861879,7.794541,69.442832-17.04,94.17Z" fill="#c9c9c9"></path><text dx="0" dy="0" font-family="&quot;NotoSansTC-Medium-90ms-RKSJ-H, Noto Sans TC&quot;" font-size="20" font-weight="400" transform="translate(81.66 169.04)" fill="#595757"><![CDATA[族群多元性]]></text></g></g><g id="e9Dk4TNqaIK262" style="isolation:isolate" transform="matrix(.761682 0 0 0.761682 89.304451 174.556629)" opacity="0"><g><path d="M215.78,8.64L141.24,0.4l9.91,12.38C62.079563,91.838939,28.087165,216.030617,64.48,329.43l21.9-48l48.74,22.21c-24.92-81.14-2.34-172.39,63-232.18l9.42,11.76Z" fill="#87bc9e"></path><circle r="96.96" transform="translate(97.45 154.39)" fill="#87bc9e"></circle><path d="M164.7,221.65c-28.846221,28.959147-72.676531,36.888028-109.84,19.87c37.21381,18.158906,81.85145,10.692485,111.130123-18.588445s36.741652-73.919145,18.579877-111.131555c17.016667,37.166908,9.088158,80.999157-19.87,109.85Z" opacity="0.07" fill="#e2e2e2"></path><path d="M30.19,87.14c31.146064-31.242247,79.402994-37.646691,117.62-15.61C109.607374,48.376024,60.53155,54.306441,28.943995,85.893995s-37.517971,80.663379-14.363995,118.866005C-7.453087,166.54228,-1.048954,118.287693,30.19,87.14Z" opacity="0.07" fill="#e2e2e2"></path><g style="mix-blend-mode:multiply"><circle r="92.03" transform="matrix(.111469-.993768 0.993768 0.111469 97.380871 154.658903)" opacity="0" fill="#fff"></circle><circle r="91.82" transform="matrix(.11407-.993473 0.993473 0.11407 97.367353 154.669904)" opacity="0.01" fill="#fcfcfc"></circle><circle r="91.61" transform="matrix(.116844-.99315 0.99315 0.116844 97.366419 154.690323)" opacity="0.02" fill="#f8f8f8"></circle><circle r="91.4" transform="matrix(.119617-.99282 0.99282 0.119617 97.365327 154.671394)" opacity="0.02" fill="#f5f5f5"></circle><circle r="91.2" transform="matrix(.122562-.992461 0.992461 0.122562 97.355255 154.671823)" opacity="0.03" fill="#f2f2f2"></circle><circle r="90.99" transform="matrix(.12568-.992071 0.992071 0.12568 97.348462 154.662082)" opacity="0.04" fill="#efefef"></circle><circle r="90.78" transform="matrix(.128969-.991649 0.991649 0.128969 97.342048 154.671839)" opacity="0.05" fill="#ebebeb"></circle><circle r="90.57" transform="matrix(.132429-.991192 0.991192 0.132429 97.336974 154.681362)" opacity="0.05" fill="#e8e8e8"></circle><circle r="90.36" transform="matrix(.136061-.9907 0.9907 0.136061 97.334369 154.681049)" opacity="0.06" fill="#e5e5e5"></circle><circle r="90.15" transform="matrix(.14-.99 0.99 0.14 97.308002 154.7184)" opacity="0.07" fill="#e2e2e2"></circle><circle r="89.94" transform="matrix(.707107-.707107 0.707107 0.707107 97.313838 154.676716)" opacity="0.08" fill="#dedede"></circle><circle r="89.73" transform="matrix(.707107-.707107 0.707107 0.707107 97.313838 154.676716)" opacity="0.09" fill="#dbdbdb"></circle><circle r="89.52" transform="matrix(.707107-.707107 0.707107 0.707107 97.306767 154.683787)" opacity="0.09" fill="#d8d8d8"></circle><circle r="89.31" transform="matrix(.707107-.707107 0.707107 0.707107 97.296767 154.673787)" opacity="0.1" fill="#d5d5d5"></circle><circle r="89.11" transform="matrix(.707107-.707107 0.707107 0.707107 97.289696 154.680858)" opacity="0.11" fill="#d1d1d1"></circle><circle r="88.9" transform="matrix(.707107-.707107 0.707107 0.707107 97.282625 154.677929)" opacity="0.12" fill="#cecece"></circle><circle r="88.69" transform="matrix(.707107-.707107 0.707107 0.707107 97.282625 154.677929)" opacity="0.13" fill="#cbcbcb"></circle><circle r="88.48" transform="matrix(.707107-.707107 0.707107 0.707107 97.275554 154.675)" opacity="0.13" fill="#c8c8c8"></circle><circle r="88.27" transform="matrix(.707107-.707107 0.707107 0.707107 97.268482 154.682071)" opacity="0.14" fill="#c4c4c4"></circle><circle r="88.06" transform="matrix(.707107-.707107 0.707107 0.707107 97.258482 154.672071)" opacity="0.15" fill="#c1c1c1"></circle><circle r="87.85" transform="matrix(.707107-.707107 0.707107 0.707107 97.251411 154.679142)" opacity="0.16" fill="#bebebe"></circle><circle r="87.64" transform="matrix(.707107-.707107 0.707107 0.707107 97.24434 154.686214)" opacity="0.16" fill="#bbb"></circle><circle r="87.43" transform="matrix(.707107-.707107 0.707107 0.707107 97.24434 154.676214)" opacity="0.17" fill="#b7b7b7"></circle><circle r="87.23" transform="matrix(.707107-.707107 0.707107 0.707107 97.237269 154.683285)" opacity="0.18" fill="#b4b4b4"></circle><circle r="87.02" transform="matrix(.707107-.707107 0.707107 0.707107 97.227269 154.673285)" opacity="0.19" fill="#b1b1b1"></circle><circle r="86.81" transform="matrix(.707107-.707107 0.707107 0.707107 97.220198 154.680356)" opacity="0.2" fill="#aeaeae"></circle><circle r="86.6" transform="matrix(.707107-.707107 0.707107 0.707107 97.213127 154.677427)" opacity="0.2" fill="#aaa"></circle><circle r="86.39" transform="matrix(.707107-.707107 0.707107 0.707107 97.213127 154.677427)" opacity="0.21" fill="#a7a7a7"></circle><circle r="86.18" transform="matrix(.707107-.707107 0.707107 0.707107 97.206056 154.674498)" opacity="0.22" fill="#a4a4a4"></circle><circle r="85.97" transform="matrix(.707107-.707107 0.707107 0.707107 97.198985 154.681569)" opacity="0.23" fill="#a1a1a1"></circle><circle r="85.76" transform="matrix(.707107-.707107 0.707107 0.707107 97.188985 154.681569)" opacity="0.24" fill="#9d9d9d"></circle><circle r="85.55" transform="matrix(.707107-.707107 0.707107 0.707107 97.181914 154.67864)" opacity="0.24" fill="#9a9a9a"></circle><circle r="85.34" transform="matrix(.707107-.707107 0.707107 0.707107 97.174843 154.685711)" opacity="0.25" fill="#979797"></circle><circle r="85.14" transform="matrix(.707107-.707107 0.707107 0.707107 97.174843 154.675711)" opacity="0.26" fill="#949494"></circle><circle r="84.93" transform="matrix(.707107-.707107 0.707107 0.707107 97.167772 154.682782)" opacity="0.27" fill="#909090"></circle><circle r="84.72" transform="matrix(.707107-.707107 0.707107 0.707107 97.157772 154.672782)" opacity="0.27" fill="#8d8d8d"></circle><circle r="84.51" transform="matrix(.707107-.707107 0.707107 0.707107 97.150701 154.679853)" opacity="0.28" fill="#8a8a8a"></circle><circle r="84.3" transform="matrix(.707107-.707107 0.707107 0.707107 97.14363 154.676924)" opacity="0.29" fill="#878787"></circle><circle r="84.09" transform="matrix(.707107-.707107 0.707107 0.707107 97.14363 154.676924)" opacity="0.3" fill="#838383"></circle><circle r="83.88" transform="matrix(.707107-.707107 0.707107 0.707107 97.136559 154.683995)" opacity="0.31" fill="#808080"></circle><circle r="83.67" transform="matrix(.707107-.707107 0.707107 0.707107 97.119488 154.681066)" opacity="0.31" fill="#7d7d7d"></circle><circle r="83.46" transform="matrix(.707107-.707107 0.707107 0.707107 97.119488 154.681066)" opacity="0.32" fill="#7a7a7a"></circle><circle r="83.26" transform="matrix(.707107-.707107 0.707107 0.707107 97.112416 154.678137)" opacity="0.33" fill="#767676"></circle><circle r="83.05" transform="matrix(.707107-.707107 0.707107 0.707107 97.112416 154.678137)" opacity="0.34" fill="#737373"></circle><circle r="82.84" transform="matrix(.707107-.707107 0.707107 0.707107 97.105345 154.675208)" opacity="0.35" fill="#707070"></circle><circle r="82.63" transform="matrix(.707107-.707107 0.707107 0.707107 97.098274 154.68228)" opacity="0.35" fill="#6d6d6d"></circle><circle r="82.42" transform="matrix(.707107-.707107 0.707107 0.707107 97.088274 154.67228)" opacity="0.36" fill="#696969"></circle><circle r="82.21" transform="matrix(.707107-.707107 0.707107 0.707107 97.081203 154.679351)" opacity="0.37" fill="#666"></circle><circle r="82" transform="matrix(.707107-.707107 0.707107 0.707107 97.074132 154.676422)" opacity="0.38" fill="#636363"></circle><circle r="81.79" transform="matrix(.707107-.707107 0.707107 0.707107 97.074132 154.676422)" opacity="0.38" fill="#606060"></circle><circle r="81.58" transform="matrix(.707107-.707107 0.707107 0.707107 97.067061 154.683493)" opacity="0.39" fill="#5c5c5c"></circle><circle r="81.37" transform="matrix(.707107-.707107 0.707107 0.707107 97.04999 154.680564)" opacity="0.4" fill="#595959"></circle></g><circle r="83.1" transform="matrix(.202275-.979329 0.979329 0.202275 97.440264 154.373642)" fill="#fff"></circle><circle r="83.1" transform="translate(97.45 154.39)" fill="#fff"></circle><path d="M155.09,212c-24.735695,24.80658-62.300842,31.589453-94.15,17c31.880254,15.547516,70.113658,9.154868,95.202183-15.917861s31.505251-63.302099,15.977817-95.192139c14.575168,31.843025,7.779992,69.394053-17.03,94.11Z" fill="#c9c9c9"></path><text dx="0" dy="0" font-family="&quot;NotoSansTC-Medium-90ms-RKSJ-H, Noto Sans TC&quot;" font-size="20" font-weight="400" transform="translate(45.66 165.04)" fill="#595757"><![CDATA[無意識偏見]]></text></g></g></svg>