<svg xmlns="http://www.w3.org/2000/svg" width="26" height="26" viewBox="0 0 26 26" fill="none"><g clip-path="url(#clip0_1254_211)"><g clip-path="url(#clip1_1254_211)"><path fill-rule="evenodd" clip-rule="evenodd" d="M20.0792 24.3574C20.5239 24.3574 20.8876 23.9953 20.8876 23.5523H20.8871V2.44748C20.8871 2.00454 20.5234 1.64185 20.0787 1.64185H5.43171C4.98701 1.64185 4.62335 2.00454 4.62335 2.44748V23.5523C4.62335 23.9953 4.98701 24.3574 5.43171 24.3574H20.0792ZM5.69635 2.72786H19.7927V23.2207H5.69635V2.72786Z" fill="#03A84E"></path><path d="M7.69275 6.04132H17.927" stroke="#03A84E" stroke-width="1.29837" stroke-miterlimit="10"></path><path d="M7.69275 8.87634H17.927" stroke="#03A84E" stroke-width="1.29837" stroke-miterlimit="10"></path><path d="M7.69275 11.7119H17.927" stroke="#03A84E" stroke-width="1.29837" stroke-miterlimit="10"></path><path d="M7.69275 14.5473H17.927" stroke="#03A84E" stroke-width="1.29837" stroke-miterlimit="10"></path><path d="M7.69275 17.3824H17.927" stroke="#03A84E" stroke-width="1.29837" stroke-miterlimit="10"></path><path d="M7.69275 20.2174H17.927" stroke="#03A84E" stroke-width="1.29837" stroke-miterlimit="10"></path><path d="M24 12.5595C24 16.9023 20.5811 20.4228 16.3638 20.4228C12.1464 20.4228 8.72806 16.9023 8.72806 12.5595C8.72806 8.21681 12.1464 4.69684 16.3638 4.69684C20.5811 4.69684 24 8.21681 24 12.5595Z" fill="#03A84E"></path><path d="M12.3983 12.6671L15.1486 15.4996L20.7213 9.76068" stroke="white" stroke-width="2.0617" stroke-miterlimit="10"></path></g></g><defs><clipPath id="clip0_1254_211"><rect width="26" height="26" fill="white"></rect></clipPath><clipPath id="clip1_1254_211"><rect width="20" height="24" fill="white" transform="translate(4 1)"></rect></clipPath></defs></svg>