<svg xmlns="http://www.w3.org/2000/svg" width="26" height="26" viewBox="0 0 26 26" fill="none"><g clip-path="url(#clip0_1254_235)"><g clip-path="url(#clip1_1254_235)"><path d="M13.6875 4C8.892 4 5 7.892 5 12.6875C5 14.396 5.49808 15.983 6.34946 17.3266L5 21.375L9.04837 20.0255C10.392 20.8769 11.979 21.375 13.6875 21.375C18.483 21.375 22.375 17.483 22.375 12.6875C22.375 7.892 18.483 4 13.6875 4Z" stroke="#03A84E" stroke-width="1.42564" stroke-linecap="round" stroke-linejoin="round"></path><path d="M13.6875 21.375C15.9265 21.375 17.7416 17.4855 17.7416 12.6875C17.7416 7.88953 15.9265 4 13.6875 4C11.4484 4 9.6333 7.88953 9.6333 12.6875C9.6333 17.4855 11.4484 21.375 13.6875 21.375Z" stroke="#03A84E" stroke-width="1.42564" stroke-linecap="round" stroke-linejoin="round"></path><path d="M6.40161 7.94971C7.95378 9.06171 10.6353 9.79146 13.6875 9.79146C16.7397 9.79146 19.4213 9.05592 20.9677 7.94971" stroke="#03A84E" stroke-width="1.42564" stroke-linecap="round" stroke-linejoin="round"></path><path d="M6.28564 17.5121C7.81464 16.3538 10.5599 15.5835 13.6874 15.5835C16.8149 15.5835 19.4211 16.319 20.9733 17.4252" stroke="#03A84E" stroke-width="1.42564" stroke-linecap="round" stroke-linejoin="round"></path></g></g><defs><clipPath id="clip0_1254_235"><rect width="26" height="26" fill="white"></rect></clipPath><clipPath id="clip1_1254_235"><rect width="20" height="20" fill="white" transform="translate(3.5 3)"></rect></clipPath></defs></svg>