<svg xmlns="http://www.w3.org/2000/svg" width="24" height="15" viewBox="0 0 24 15" fill="none"><path d="M22.0444 8.22447C22.0587 8.22447 22.0721 8.22268 22.0864 8.22268H23.2258C23.4124 8.22268 23.558 8.05391 23.5267 7.86996C23.2597 6.29565 21.2372 5.63485 20.4772 5.44019C20.2861 5.39107 20.1201 5.27141 20.0102 5.10711L18.4779 2.82557C18.6288 2.91218 18.8011 2.96576 18.9878 2.96576H19.6209C19.7173 2.96576 19.7959 2.88718 19.7959 2.79074V0.667255C19.7959 0.570814 19.7173 0.492233 19.6209 0.492233H18.9878C18.685 0.492233 18.4163 0.625285 18.2278 0.833348C18.1859 0.659218 18.1341 0.47348 18.0671 0.267204C17.9555 -0.0739111 17.5501 -0.0364063 17.0384 0.0939675C16.3437 0.270776 15.6364 0.405614 14.9256 0.496698L13.9353 0.623499C13.7398 0.648503 13.6005 0.82799 13.6255 1.02355L13.6567 1.26644C13.6817 1.46289 13.8612 1.6013 14.0568 1.5763L15.231 1.42628C15.2578 1.55933 15.2882 1.70489 15.3105 1.86384C15.4123 2.57732 15.6329 2.87825 16.0642 2.9488C16.3839 4.11323 16.9036 5.47769 17.234 6.44656C17.4144 6.9761 17.2875 7.5601 16.9036 7.9673L15.6364 9.31122C15.4186 9.5425 15.1141 9.67376 14.7962 9.67376H11.2046C10.5751 9.67376 10.0866 9.12369 10.1607 8.49861L10.4903 5.72504L11.2403 5.71522C11.5038 5.71165 11.7279 5.52323 11.777 5.26427L12.0074 4.03733C12.0708 3.69711 11.8101 3.38278 11.4645 3.38278H4.27607C3.95817 3.38278 3.70635 3.64978 3.7251 3.96768L3.78136 4.92941C1.71949 6.03312 0.822946 8.86741 0.514871 10.1461C0.435397 10.4748 0.684536 10.7882 1.02208 10.7882H1.71235C1.69895 10.9114 1.69091 11.0364 1.69091 11.1632C1.69091 13.0528 3.22861 14.5905 5.11814 14.5905C6.88533 14.5905 8.34444 13.2448 8.52571 11.524C8.67573 11.5508 8.82754 11.5686 8.98113 11.5686H15.865C16.258 11.5686 16.616 11.3901 16.8696 11.0998C16.8696 11.1213 16.8661 11.1418 16.8661 11.1632C16.8661 13.1822 18.6216 14.7994 20.6862 14.5681C22.1855 14.4003 23.4348 13.218 23.6741 11.7276C23.9125 10.2488 23.1946 8.91027 22.0444 8.22268V8.22447ZM5.11724 13.1367C4.02961 13.1367 3.14467 12.2518 3.14467 11.1641C3.14467 11.0355 3.15896 10.9105 3.18307 10.7891H4.35822C4.30196 10.9025 4.26714 11.0293 4.26714 11.1641C4.26714 11.6338 4.64754 12.0142 5.11724 12.0142C5.58695 12.0142 5.96735 11.6338 5.96735 11.1641C5.96735 11.0284 5.93253 10.9025 5.87627 10.7891H6.9139L7.05946 10.8721C7.07374 10.9677 7.08892 11.0641 7.08892 11.1641C7.08892 12.2518 6.20399 13.1367 5.11635 13.1367H5.11724ZM20.2924 13.1367C19.2048 13.1367 18.3198 12.2518 18.3198 11.1641C18.3198 10.0765 19.2048 9.19156 20.2924 9.19156C21.38 9.19156 22.265 10.0765 22.265 11.1641C22.265 12.2518 21.38 13.1367 20.2924 13.1367Z" fill="#03A84E"></path></svg>