<svg xmlns="http://www.w3.org/2000/svg" width="31" height="23" viewBox="0 0 31 23" fill="none"><path d="M4.315 18L0.91 6.9H3.25L4.705 12.3C5.05 13.545 5.305 14.64 5.65 15.9H5.725C6.085 14.64 6.325 13.545 6.655 12.3L8.095 6.9H10.36L6.955 18H4.315ZM11.8021 18V6.9H14.0521L17.2771 12.825L18.4021 15.225H18.4771C18.3571 14.07 18.1771 12.585 18.1771 11.325V6.9H20.2921V18H18.0271L14.8171 12.06L13.6921 9.69H13.6171C13.7221 10.875 13.9021 12.27 13.9021 13.56V18H11.8021Z" fill="white"></path><path d="M27.485 22.26V5.25H28.94V22.26H27.485Z" fill="white"></path></svg>